<?xml version="1.0" encoding="UTF-8" standalone="no"?>
<svg
   width="32"
   height="32"
   fill="none"
   version="1.1"
   viewBox="0 0 16 16"
   id="svg6"
   sodipodi:docname="LuauScript.svg"
   xml:space="preserve"
   inkscape:version="1.4 (86a8ad7, 2024-10-11)"
   xmlns:inkscape="http://www.inkscape.org/namespaces/inkscape"
   xmlns:sodipodi="http://sodipodi.sourceforge.net/DTD/sodipodi-0.dtd"
   xmlns="http://www.w3.org/2000/svg"
   xmlns:svg="http://www.w3.org/2000/svg"><defs
     id="defs6"><linearGradient
       id="swatch6"
       inkscape:swatch="solid"><stop
         style="stop-color:#ffffff;stop-opacity:1;"
         offset="0"
         id="stop6" /></linearGradient></defs><sodipodi:namedview
     id="namedview6"
     pagecolor="#505050"
     bordercolor="#ffffff"
     borderopacity="1"
     inkscape:showpageshadow="0"
     inkscape:pageopacity="0"
     inkscape:pagecheckerboard="1"
     inkscape:deskcolor="#505050"
     showgrid="false"
     inkscape:zoom="22.627417"
     inkscape:cx="14.672466"
     inkscape:cy="15.755223"
     inkscape:window-width="1920"
     inkscape:window-height="1027"
     inkscape:window-x="1912"
     inkscape:window-y="-8"
     inkscape:window-maximized="1"
     inkscape:current-layer="layer1" /><g
     inkscape:groupmode="layer"
     id="layer1"
     inkscape:label="Layer 1"><rect
       style="display:none;fill:#3d5ef5;fill-opacity:1;stroke-width:1;stroke-linecap:round;stroke-linejoin:round;paint-order:markers stroke fill"
       id="rect6"
       width="11.558788"
       height="11.558788"
       x="2.2206059"
       y="2.2206059" /><rect
       style="display:none;fill:#f5f5f5;fill-opacity:1;stroke-width:0.786621;stroke-linecap:round;stroke-linejoin:round;paint-order:markers stroke fill"
       id="rect7"
       width="2.6850002"
       height="2.6850002"
       x="9.9285984"
       y="3.4671969" /><rect
       style="display:none;fill:#383838;fill-opacity:1;stroke-width:0.493652;stroke-linecap:round;stroke-linejoin:round;paint-order:markers stroke fill"
       id="rect7-0"
       width="1.6850002"
       height="1.6850002"
       x="10.25"
       y="4.09375" /><path
       d="m 8.000001,10.642578 v 0.896485 h 0.827588 l 0.2177863,1.007812 3.1042237,-0.178596 0.0649,-1.098748 2.223001,-0.246093 v -0.851563 l -2.96875,0.291016 -0.07813,1.142578 -1.6701141,0.112304 -0.2613436,-1.075195 z"
       style="display:none;fill:#383838;stroke-linecap:round;stroke-linejoin:round;paint-order:markers stroke fill"
       id="path12"
       sodipodi:nodetypes="ccccccccccccc" /><path
       d="m 1.5625,10.171875 v 0.851563 l 2.2230012,0.246093 0.1090935,1.098748 3.060032,0.178596 0.2177863,-1.007812 H 8.000001 V 10.642578 H 6.5408327 L 6.2794891,11.717773 4.609375,11.605469 4.53125,10.462891 Z"
       style="display:none;fill:#383838;stroke-linecap:round;stroke-linejoin:round;paint-order:markers stroke fill"
       id="path11"
       sodipodi:nodetypes="ccccccccccccc" /><g
       id="g15"
       style="display:inline"
       transform="rotate(10.48565,7.9999991,7.9999864)"><path
         d="m 13.779297,11.09668 -1.564453,0.172851 -0.06543,1.098633 -3.1044921,0.178711 -0.2177735,-1.007812 H 8 7.1728516 L 6.9550781,12.546875 3.8945313,12.368164 3.7851563,11.269531 2.2207031,11.09668 v 2.682617 H 13.779297 Z"
         style="fill:#4d90c1;stroke-linecap:round;stroke-linejoin:round;paint-order:markers stroke fill;fill-opacity:1"
         id="path17" /><path
         d="m 2.2207031,2.2207031 v 8.0156249 l 2.3105469,0.226563 0.078125,1.142578 1.6699219,0.112304 0.2617187,-1.075195 H 8 9.4589844 l 0.2617187,1.075195 1.6699219,-0.112304 0.07813,-1.142578 2.310547,-0.226563 V 2.2207031 Z M 9.9287109,3.4667969 H 12.613281 V 6.1523437 H 9.9287109 Z"
         style="fill:#4d90c1;stroke-linecap:round;stroke-linejoin:round;paint-order:markers stroke fill;fill-opacity:1"
         id="path16" /><rect
         style="display:inline;fill:#474648;fill-opacity:1;stroke-width:0.493652;stroke-linecap:round;stroke-linejoin:round;paint-order:markers stroke fill"
         id="rect17"
         width="1.6850002"
         height="1.6850002"
         x="10.318467"
         y="4.1837592" /></g></g></svg>
